<svg width="60" height="61" viewBox="0 0 60 61" fill="none" xmlns="http://www.w3.org/2000/svg">
<path d="M26.6667 16.9445V33.8889L40.8333 42.4289L43.4 38.0911L31.6667 31.0084V16.9445H26.6667ZM60 23.7223V6.30443e-05L51.2 8.94672C48.4238 6.10422 45.1206 3.84985 41.4816 2.31414C37.8426 0.778429 33.9401 -0.00810985 30 6.30443e-05C24.0666 6.30443e-05 18.2664 1.78886 13.3329 5.14023C8.39943 8.49161 4.55426 13.2551 2.28363 18.8282C0.0129984 24.4013 -0.581101 30.5339 0.576455 36.4503C1.73401 42.3667 4.59123 47.8013 8.78681 52.0668C12.9824 56.3322 18.3279 59.2371 24.1473 60.4139C29.9667 61.5908 35.9987 60.9868 41.4805 58.6783C46.9623 56.3698 51.6476 52.4606 54.9441 47.4449C58.2405 42.4292 60 36.5323 60 30.5H53.3333C53.3333 43.5811 42.8667 54.2222 30 54.2222C17.1333 54.2222 6.66668 43.5811 6.66668 30.5C6.66668 17.4189 17.1333 6.77783 30 6.77783C36.4333 6.77783 42.2667 9.45505 46.5 13.725L36.6667 23.7223H60Z" fill="white"/>
</svg>
