<svg width="25" height="30" viewBox="0 0 25 30" fill="none" xmlns="http://www.w3.org/2000/svg">
<path d="M3.18772 5.63082L4.62734 4.59156C5.28258 4.11811 6.07157 3.9066 6.84702 3.99652C7.62248 4.08643 8.33141 4.47163 8.84147 5.0802L10.4696 7.02279C10.9083 7.54609 11.176 8.20615 11.235 8.91036C11.2941 9.61456 11.1416 10.3276 10.799 10.9493L9.55338 13.21C9.538 13.238 9.52752 13.2685 9.52247 13.3001C9.45093 13.745 10.0135 14.6743 11.3064 15.9263C12.7644 17.3373 13.7044 17.7699 14.0199 17.5449L16.0711 16.0504C16.633 15.6416 17.2968 15.4241 17.9695 15.4286C18.6421 15.4331 19.2899 15.6593 19.8221 16.0754L21.7899 17.6127C22.4077 18.0954 22.8309 18.8036 22.9809 19.6056C23.1309 20.4076 22.9975 21.2489 22.6054 21.9732L21.7387 23.5723C21.4374 24.1288 21.015 24.6046 20.5075 24.959C20 25.3133 19.4225 25.5358 18.8242 25.6074C15.2713 26.0315 11.4774 24.2519 7.43409 20.3388C3.38902 16.4231 1.38952 12.5916 1.50712 8.83482C1.52678 8.20589 1.68984 7.58639 1.98252 7.02866C2.2752 6.47093 2.6889 5.99137 3.18867 5.63049L3.18772 5.63082ZM4.00383 6.91393C3.70394 7.13041 3.45569 7.41811 3.28004 7.75273C3.10438 8.08734 3.0065 8.45903 2.99465 8.83639C2.89306 12.0737 4.6926 15.5232 8.45995 19.1696C12.2246 22.8136 15.6414 24.4158 18.7022 24.0498C19.0613 24.0068 19.408 23.8733 19.7126 23.6605C20.0172 23.4477 20.2707 23.162 20.4515 22.8279L21.3175 21.2301C21.5287 20.8401 21.6007 20.3871 21.5201 19.9552C21.4394 19.5233 21.2116 19.1419 20.8789 18.8819L18.9108 17.3436C18.6244 17.1195 18.2756 16.9978 17.9135 16.9953C17.5514 16.9929 17.194 17.1099 16.8915 17.3299L14.835 18.8283C13.6941 19.6462 12.2104 18.9639 10.2802 17.0946C8.64571 15.5135 7.8716 14.2312 8.05546 13.0868C8.09104 12.8655 8.16431 12.6519 8.27181 12.456L9.51742 10.1953C9.70202 9.86049 9.78419 9.4765 9.75241 9.09724C9.72063 8.71797 9.57648 8.36247 9.34021 8.08065L7.71232 6.13905C7.43765 5.81126 7.05584 5.60379 6.6382 5.55538C6.22056 5.50697 5.79564 5.62093 5.44279 5.87599L4.00316 6.91525L4.00383 6.91393Z" fill="black"/>
</svg>
