<svg width="85" height="85" viewBox="0 0 85 85" fill="none" xmlns="http://www.w3.org/2000/svg">
<g clip-path="url(#clip0_257_2)">
<path d="M85 42.5C85 19.0254 65.9746 -8.31626e-07 42.5 -1.85773e-06C19.0254 -2.88384e-06 -8.31626e-07 19.0254 -1.85773e-06 42.5C-2.88384e-06 65.9746 19.0254 85 42.5 85C65.9746 85 85 65.9746 85 42.5ZM38.748 59.5332L20.1543 40.9395C18.0791 38.8643 18.0791 35.5024 20.1543 33.4272C22.2295 31.352 25.5913 31.352 27.6665 33.4272L42.5 48.2773L57.3418 33.4355C59.417 31.3603 62.7788 31.3603 64.854 33.4355C66.9292 35.5107 66.9292 38.8726 64.854 40.9478L46.2603 59.5415C45.2227 60.5791 43.8613 61.0937 42.5 61.0937C41.1387 61.0937 39.7773 60.5791 38.748 59.5332Z" fill="#BDC3F8"/>
</g>
<defs>
<clipPath id="clip0_257_2">
<rect width="85" height="85" fill="white" transform="translate(85) rotate(90)"/>
</clipPath>
</defs>
</svg>
