<svg width="60" height="63" viewBox="0 0 60 63" fill="none" xmlns="http://www.w3.org/2000/svg">
<path d="M0 31.4481C0 14.0793 12.7914 0 28.5714 0C43.7657 0 56.1886 13.0541 57.09 29.5282C56.0137 29.6586 54.9787 30.0582 54.0643 30.6965C53.8976 30.5036 53.7241 30.3179 53.5443 30.1399C53.4392 27.6428 53.0244 25.1733 52.3114 22.7999H42.3114C42.5086 24.3283 42.6543 25.9038 42.7471 27.5171H39.1671C39.0728 25.9381 38.9169 24.3642 38.7 22.7999H18.4429C18.0488 25.6621 17.853 28.5532 17.8571 31.4481C17.8571 34.7816 18.1071 37.9532 18.5571 40.8825H23.5714V44.8136H19.3143C19.9386 47.4898 20.7386 49.8893 21.6643 51.9271C22.2886 53.303 22.9314 54.4383 23.5714 55.3675V58.2844C23.5714 59.8127 23.8771 61.2641 24.4243 62.5676C10.61 60.3568 0 47.2665 0 31.4481ZM28.5714 3.93101C26.7086 3.93101 24.06 5.69525 21.6643 10.9691C20.6486 13.2051 19.7843 15.875 19.1371 18.8689H38.0057C37.3586 15.8734 36.4943 13.2051 35.4786 10.9691C33.0829 5.69525 30.4357 3.93101 28.5714 3.93101ZM36.5543 5.36347C38.79 8.68754 40.5771 13.367 41.6686 18.8689H50.8114C47.8311 12.5015 42.7187 7.65863 36.5543 5.36347ZM20.5886 57.5327C18.46 54.3691 16.7386 49.9742 15.6371 44.8136H6.71143C9.74115 50.8028 14.6874 55.3368 20.5871 57.5327H20.5886ZM14.94 40.8825C14.5003 37.7611 14.2815 34.6068 14.2857 31.4481C14.2857 28.4495 14.4757 25.5469 14.8329 22.7999H4.83143C3.99422 25.59 3.56882 28.5098 3.57143 31.4481C3.57143 34.7627 4.10429 37.9406 5.08 40.8825H14.94ZM15.4743 18.8689C16.5657 13.367 18.3529 8.68754 20.5886 5.36347C14.4242 7.65863 9.31176 12.5015 6.33143 18.8689H15.4743ZM31.4457 62.739C30.6063 62.4158 29.8789 61.8135 29.364 61.0155C28.8491 60.2175 28.5722 59.2631 28.5714 58.2844V37.7377C28.5714 36.4866 29.023 35.2868 29.8267 34.4022C30.6304 33.5175 31.7205 33.0205 32.8571 33.0205H47.3329C48.4695 33.0205 49.5596 33.5175 50.3633 34.4022C51.167 35.2868 51.6186 36.4866 51.6186 37.7377V38.9957L56.6914 35.3791C56.7729 35.3209 56.8557 35.2691 56.9386 35.2266C58.3243 34.4923 60 35.5945 60 37.3588V58.5564C60 60.4275 58.1171 61.5534 56.6914 60.5376L51.62 56.9195V58.2828C51.62 59.5339 51.1685 60.7337 50.3647 61.6184C49.561 62.503 48.4709 63 47.3343 63H32.8571C32.3629 63 31.8871 62.9072 31.4457 62.7374V62.739Z" fill="white"/>
</svg>
