<svg width="21" height="17" viewBox="0 0 21 17" fill="none" xmlns="http://www.w3.org/2000/svg">
<path d="M19.3573 0H1.66931C1.27838 0 0.903466 0.174626 0.627037 0.485462C0.350608 0.796298 0.195313 1.21788 0.195312 1.65747V14.9172C0.195313 15.3568 0.350608 15.7784 0.627037 16.0892C0.903466 16.4001 1.27838 16.5747 1.66931 16.5747H19.3573C19.7482 16.5747 20.1232 16.4001 20.3996 16.0892C20.676 15.7784 20.8313 15.3568 20.8313 14.9172V1.65747C20.8313 1.21788 20.676 0.796298 20.3996 0.485462C20.1232 0.174626 19.7482 0 19.3573 0ZM17.7359 1.65747L10.5133 7.2763L3.29071 1.65747H17.7359ZM1.66931 14.9172V2.41162L10.0932 8.96692C10.2166 9.06316 10.3632 9.11473 10.5133 9.11473C10.6635 9.11473 10.81 9.06316 10.9334 8.96692L19.3573 2.41162V14.9172H1.66931Z" fill="black"/>
</svg>
