<svg width="35" height="35" viewBox="0 0 35 35" fill="none" xmlns="http://www.w3.org/2000/svg">
<path d="M19.0909 1.59091C19.0909 1.16897 18.9233 0.76432 18.6249 0.465967C18.3266 0.167613 17.9219 0 17.5 0C17.0781 0 16.6734 0.167613 16.3751 0.465967C16.0767 0.76432 15.9091 1.16897 15.9091 1.59091V15.9091H1.59091C1.16897 15.9091 0.76432 16.0767 0.465967 16.3751C0.167613 16.6734 0 17.0781 0 17.5C0 17.9219 0.167613 18.3266 0.465967 18.6249C0.76432 18.9233 1.16897 19.0909 1.59091 19.0909H15.9091V33.4091C15.9091 33.831 16.0767 34.2357 16.3751 34.534C16.6734 34.8324 17.0781 35 17.5 35C17.9219 35 18.3266 34.8324 18.6249 34.534C18.9233 34.2357 19.0909 33.831 19.0909 33.4091V19.0909H33.4091C33.831 19.0909 34.2357 18.9233 34.534 18.6249C34.8324 18.3266 35 17.9219 35 17.5C35 17.0781 34.8324 16.6734 34.534 16.3751C34.2357 16.0767 33.831 15.9091 33.4091 15.9091H19.0909V1.59091Z" fill="#9B9999"/>
</svg>
