<svg width="73" height="73" viewBox="0 0 73 73" fill="none" xmlns="http://www.w3.org/2000/svg">
<path d="M32.1949 0L54.393 6.935C55.0121 7.12828 55.5532 7.51438 55.9373 8.03696C56.3215 8.55954 56.5285 9.19122 56.5282 9.83979V15.2083H62.6116C63.4183 15.2083 64.1919 15.5288 64.7624 16.0992C65.3328 16.6696 65.6532 17.4433 65.6532 18.25V24.3333H26.1116V18.25C26.1116 17.4433 26.432 16.6696 27.0025 16.0992C27.5729 15.5288 28.3465 15.2083 29.1532 15.2083H50.4449V12.0754L32.1949 6.36925L13.9449 12.0754V34.5959C13.9445 36.4581 14.3715 38.2955 15.1931 39.9667C16.0147 41.6378 17.2089 43.0981 18.6838 44.235L19.2587 44.6486L32.1949 53.4725L43.6985 45.625H29.1532C28.3465 45.625 27.5729 45.3045 27.0025 44.7341C26.432 44.1637 26.1116 43.39 26.1116 42.5833V30.4167H65.6532V42.5833C65.6532 43.39 65.3328 44.1637 64.7624 44.7341C64.1919 45.3045 63.4183 45.625 62.6116 45.625L52.8174 45.628C51.6403 47.1793 50.2107 48.548 48.5591 49.6735L32.1949 60.8333L15.8307 49.6765C13.3747 48.0019 11.3648 45.7527 9.97596 43.1245C8.5871 40.4963 7.86126 37.5685 7.86157 34.5959V9.83979C7.86194 9.19174 8.06928 8.56074 8.45337 8.03878C8.83745 7.51681 9.37821 7.13116 9.99682 6.93804L32.1949 0Z" fill="#5E4E4E"/>
</svg>
