<svg width="17" height="25" viewBox="0 0 17 25" fill="none" xmlns="http://www.w3.org/2000/svg">
<path d="M8.49615 4.28174C7.57837 4.28174 6.6812 4.55514 5.91809 5.06736C5.15499 5.57958 4.56022 6.30763 4.209 7.15942C3.85778 8.01122 3.76589 8.94851 3.94494 9.85277C4.12399 10.757 4.56594 11.5877 5.21491 12.2396C5.86388 12.8915 6.69071 13.3355 7.59085 13.5154C8.491 13.6952 9.42402 13.6029 10.2719 13.2501C11.1199 12.8973 11.8446 12.2998 12.3545 11.5332C12.8644 10.7666 13.1365 9.86532 13.1365 8.94334C13.1365 7.70701 12.6476 6.52131 11.7774 5.64709C10.9071 4.77287 9.72685 4.28174 8.49615 4.28174V4.28174ZM8.49615 11.9779C7.89871 11.9779 7.31469 11.7999 6.81794 11.4664C6.32119 11.133 5.93402 10.6591 5.70539 10.1046C5.47676 9.55011 5.41694 8.93997 5.53349 8.35133C5.65005 7.7627 5.93774 7.222 6.36019 6.79761C6.78264 6.37323 7.32088 6.08422 7.90684 5.96713C8.49279 5.85004 9.10016 5.91014 9.65212 6.13981C10.2041 6.36949 10.6758 6.75843 11.0078 7.25745C11.3397 7.75648 11.5168 8.34317 11.5168 8.94334C11.5147 9.74673 11.1955 10.5165 10.6292 11.0838C10.063 11.6511 9.29588 11.9697 8.49615 11.9697V11.9779Z" fill="black"/>
<path d="M8.49268 0.137939C6.28505 0.139925 4.16785 1.08272 2.6035 2.7604C1.03916 4.43808 0.154789 6.71432 0.143555 9.09195C0.143555 12.6568 2.00049 15.6414 3.3613 17.817L3.60936 18.2139C4.96328 20.3273 6.41572 22.3655 7.96111 24.3206L8.49976 25L9.03842 24.3206C10.5836 22.3653 12.036 20.3271 13.3902 18.2139L13.6382 17.8093C14.992 15.6338 16.8489 12.6568 16.8489 9.09195C16.8376 6.713 15.9523 4.43561 14.3864 2.75771C12.8205 1.07981 10.7015 0.137909 8.49268 0.137939V0.137939ZM12.4546 16.9315L12.1995 17.336C10.9804 19.3055 9.36444 21.5115 8.49268 22.6031C7.65635 21.5115 6.00495 19.3055 4.78589 17.336L4.53783 16.9315C3.28333 14.9163 1.56106 12.1606 1.56106 9.06141C1.56106 8.08103 1.74035 7.11025 2.0887 6.2045C2.43705 5.29874 2.94763 4.47575 3.59129 3.78252C4.23495 3.08928 4.99908 2.53938 5.84006 2.1642C6.68104 1.78902 7.5824 1.59592 8.49268 1.59592C9.40295 1.59592 10.3043 1.78902 11.1453 2.1642C11.9863 2.53938 12.7504 3.08928 13.3941 3.78252C14.0377 4.47575 14.5483 5.29874 14.8967 6.2045C15.245 7.11025 15.4243 8.08103 15.4243 9.06141C15.4243 12.1911 13.7091 14.9468 12.4546 16.9315V16.9315Z" fill="black"/>
</svg>
