<svg width="58" height="55" viewBox="0 0 58 55" fill="none" xmlns="http://www.w3.org/2000/svg">
<path d="M54.5925 14.8055H3.4075C2.50378 14.8055 1.63706 15.1621 0.998033 15.7967C0.359003 16.4313 0 17.2921 0 18.1895V51.0216C0 51.919 0.359003 52.7798 0.998033 53.4144C1.63706 54.049 2.50378 54.4055 3.4075 54.4055H54.5925C55.4962 54.4055 56.3629 54.049 57.002 53.4144C57.641 52.7798 58 51.919 58 51.0216V18.1895C58 17.2921 57.641 16.4313 57.002 15.7967C56.3629 15.1621 55.4962 14.8055 54.5925 14.8055V14.8055ZM40.2013 36.0995L22.4931 43.9475C22.2174 44.0706 21.915 44.1233 21.6136 44.1007C21.3121 44.0781 21.0211 43.981 20.7671 43.8182C20.5131 43.6554 20.3042 43.4321 20.1593 43.1686C20.0144 42.9051 19.9381 42.6098 19.9375 42.3096V26.6135C19.9381 26.3133 20.0144 26.018 20.1593 25.7545C20.3042 25.491 20.5131 25.2677 20.7671 25.1049C21.0211 24.9421 21.3121 24.845 21.6136 24.8224C21.915 24.7998 22.2174 24.8525 22.4931 24.9755L40.2013 32.8055C40.5229 32.9464 40.7963 33.1771 40.9883 33.4695C41.1803 33.7619 41.2825 34.1035 41.2825 34.4526C41.2825 34.8016 41.1803 35.1432 40.9883 35.4356C40.7963 35.728 40.5229 35.9587 40.2013 36.0995V36.0995Z" fill="#5E4E4E"/>
<path d="M51.0037 1.8C51.0037 1.32261 50.8127 0.864773 50.4728 0.527208C50.1329 0.189642 49.6719 0 49.1912 0H9.31616C8.83546 0 8.37444 0.189642 8.03453 0.527208C7.69462 0.864773 7.50366 1.32261 7.50366 1.8V3.6H51.0037V1.8Z" fill="#5E4E4E"/>
<path d="M54.5928 9.20277C54.5928 8.72538 54.4018 8.26754 54.0619 7.92998C53.722 7.59241 53.261 7.40277 52.7803 7.40277H5.65527C5.17457 7.40277 4.71355 7.59241 4.37364 7.92998C4.03373 8.26754 3.84277 8.72538 3.84277 9.20277V11.0028H54.5928V9.20277Z" fill="#5E4E4E"/>
</svg>
