<svg width="68" height="58" viewBox="0 0 68 58" fill="none" xmlns="http://www.w3.org/2000/svg">
<g clip-path="url(#clip0_276_27)">
<path d="M22.0999 39.875C21.846 39.875 21.5921 39.9146 21.3498 39.9985C19.9728 40.4754 18.5246 40.7812 16.9999 40.7812C15.4752 40.7812 14.0271 40.4754 12.649 39.9985C12.4067 39.9146 12.1539 39.875 11.8999 39.875C5.30606 39.875 -0.035135 45.5934 -7.24959e-05 52.6327C0.0148025 55.6075 2.30874 58 5.09993 58H28.8999C31.6911 58 33.9851 55.6075 33.9999 52.6327C34.035 45.5934 28.6938 39.875 22.0999 39.875ZM16.9999 36.25C22.6333 36.25 27.1999 31.3812 27.1999 25.375C27.1999 19.3688 22.6333 14.5 16.9999 14.5C11.3666 14.5 6.79993 19.3688 6.79993 25.375C6.79993 31.3812 11.3666 36.25 16.9999 36.25ZM62.9 0H22.0999C19.2875 0 16.9999 2.52051 16.9999 5.61762V10.875C19.4883 10.875 21.7918 11.643 23.7999 12.8914V7.25H61.2V39.875H54.4V32.625H40.7999V39.875H32.6994C34.7288 41.7657 36.2184 44.2624 36.9165 47.125H62.9C65.7124 47.125 68 44.6045 68 41.5074V5.61762C68 2.52051 65.7124 0 62.9 0Z" fill="white"/>
</g>
<defs>
<clipPath id="clip0_276_27">
<rect width="68" height="58" fill="white"/>
</clipPath>
</defs>
</svg>
