<svg width="61" height="79" viewBox="0 0 61 79" fill="none" xmlns="http://www.w3.org/2000/svg">
<path d="M30.1735 18.7842C34.7183 18.7842 38.4027 14.5792 38.4027 9.39211C38.4027 4.20499 34.7183 0 30.1735 0C25.6287 0 21.9443 4.20499 21.9443 9.39211C21.9443 14.5792 25.6287 18.7842 30.1735 18.7842Z" fill="white"/>
<path d="M43.8587 26.216C42.4201 24.734 39.9487 21.9979 35.1534 21.9979H25.7841C15.6401 21.9599 7.37741 13.4475 7.37741 2.99713H0C0 15.0056 7.78317 25.19 18.4435 28.4961V79H25.8209V56.1992H33.1983V79H40.5758V33.5883L55.1461 48.5989L60.3472 43.2407L43.8587 26.216Z" fill="white"/>
</svg>
