<svg width="58" height="58" viewBox="0 0 58 58" fill="none" xmlns="http://www.w3.org/2000/svg">
<g filter="url(#filter0_d_76_20)">
<rect x="4" y="3" width="50" height="50" rx="10" fill="#209EEB"/>
</g>
<path d="M46.4801 17.1999C45.2624 17.7395 43.9543 18.1041 42.5791 18.2688C43.998 17.4198 45.0596 16.0835 45.5657 14.5093C44.2326 15.3011 42.7735 15.8585 41.252 16.1572C40.2288 15.0647 38.8735 14.3406 37.3966 14.0972C35.9197 13.8539 34.4038 14.105 33.0842 14.8115C31.7646 15.518 30.7152 16.6404 30.0989 18.0045C29.4825 19.3685 29.3338 20.8979 29.6757 22.3551C26.9744 22.2195 24.3319 21.5174 21.9195 20.2943C19.5071 19.0713 17.3788 17.3547 15.6728 15.2559C15.0895 16.2622 14.7541 17.4288 14.7541 18.6713C14.7534 19.7899 15.0289 20.8913 15.556 21.8778C16.0831 22.8644 16.8455 23.7056 17.7757 24.3268C16.697 24.2924 15.642 24.0009 14.6986 23.4765V23.564C14.6985 25.1328 15.2412 26.6534 16.2345 27.8676C17.2279 29.0818 18.6107 29.915 20.1484 30.2257C19.1477 30.4966 18.0985 30.5364 17.0801 30.3424C17.514 31.6922 18.3591 32.8726 19.4971 33.7183C20.6351 34.564 22.0091 35.0326 23.4268 35.0586C21.0203 36.9478 18.0483 37.9725 14.9889 37.968C14.4469 37.9682 13.9054 37.9365 13.3672 37.8732C16.4727 39.8699 20.0877 40.9296 23.7797 40.9255C36.2776 40.9255 43.1099 30.5743 43.1099 21.5968C43.1099 21.3051 43.1026 21.0105 43.0895 20.7188C44.4184 19.7578 45.5656 18.5676 46.4772 17.2043L46.4801 17.1999V17.1999Z" fill="white"/>
<defs>
<filter id="filter0_d_76_20" x="0" y="0" width="58" height="58" filterUnits="userSpaceOnUse" color-interpolation-filters="sRGB">
<feFlood flood-opacity="0" result="BackgroundImageFix"/>
<feColorMatrix in="SourceAlpha" type="matrix" values="0 0 0 0 0 0 0 0 0 0 0 0 0 0 0 0 0 0 127 0" result="hardAlpha"/>
<feOffset dy="1"/>
<feGaussianBlur stdDeviation="2"/>
<feComposite in2="hardAlpha" operator="out"/>
<feColorMatrix type="matrix" values="0 0 0 0 0 0 0 0 0 0 0 0 0 0 0 0 0 0 0.25 0"/>
<feBlend mode="normal" in2="BackgroundImageFix" result="effect1_dropShadow_76_20"/>
<feBlend mode="normal" in="SourceGraphic" in2="effect1_dropShadow_76_20" result="shape"/>
</filter>
</defs>
</svg>
