<svg width="58" height="58" viewBox="0 0 58 58" fill="none" xmlns="http://www.w3.org/2000/svg">
<g filter="url(#filter0_d_76_21)">
<rect x="4" y="3" width="50" height="50" rx="10" fill="#12C253"/>
</g>
<path d="M41.9208 19.8301C37.3608 12.8001 28.0508 10.7101 20.8308 15.0801C13.8008 19.4501 11.5208 28.9501 16.0808 35.9801L16.4608 36.5501L14.9408 42.2501L20.6408 40.7301L21.2108 41.1101C23.6808 42.4401 26.3408 43.2001 29.0008 43.2001C31.8508 43.2001 34.7008 42.4401 37.1708 40.9201C44.2008 36.3601 46.2908 27.0501 41.9208 19.8301V19.8301ZM37.9308 34.4601C37.1708 35.6001 36.2208 36.3601 34.8908 36.5501C34.1308 36.5501 33.1808 36.9301 29.3808 35.4101C26.1508 33.8901 23.4908 31.4201 21.5908 28.5701C20.4508 27.2401 19.8808 25.5301 19.6908 23.8201C19.6908 22.3001 20.2608 20.9701 21.2108 20.0201C21.5908 19.6401 21.9708 19.4501 22.3508 19.4501H23.3008C23.6808 19.4501 24.0608 19.4501 24.2508 20.2101C24.6308 21.1601 25.5808 23.4401 25.5808 23.6301C25.7708 23.8201 25.7708 24.2001 25.5808 24.3901C25.7708 24.7701 25.5808 25.1501 25.3908 25.3401C25.2008 25.5301 25.0108 25.9101 24.8208 26.1001C24.4408 26.2901 24.2508 26.6701 24.4408 27.0501C25.2008 28.1901 26.1508 29.3301 27.1008 30.2801C28.2408 31.2301 29.3808 31.9901 30.7108 32.5601C31.0908 32.7501 31.4708 32.7501 31.6608 32.3701C31.8508 31.9901 32.8008 31.0401 33.1808 30.6601C33.5608 30.2801 33.7508 30.2801 34.1308 30.4701L37.1708 31.9901C37.5508 32.1801 37.9308 32.3701 38.1208 32.5601C38.3108 33.1301 38.3108 33.8901 37.9308 34.4601V34.4601Z" fill="white"/>
<defs>
<filter id="filter0_d_76_21" x="0" y="0" width="58" height="58" filterUnits="userSpaceOnUse" color-interpolation-filters="sRGB">
<feFlood flood-opacity="0" result="BackgroundImageFix"/>
<feColorMatrix in="SourceAlpha" type="matrix" values="0 0 0 0 0 0 0 0 0 0 0 0 0 0 0 0 0 0 127 0" result="hardAlpha"/>
<feOffset dy="1"/>
<feGaussianBlur stdDeviation="2"/>
<feComposite in2="hardAlpha" operator="out"/>
<feColorMatrix type="matrix" values="0 0 0 0 0 0 0 0 0 0 0 0 0 0 0 0 0 0 0.25 0"/>
<feBlend mode="normal" in2="BackgroundImageFix" result="effect1_dropShadow_76_21"/>
<feBlend mode="normal" in="SourceGraphic" in2="effect1_dropShadow_76_21" result="shape"/>
</filter>
</defs>
</svg>
